<?xml version="1.0" standalone="no"?><!DOCTYPE svg PUBLIC "-//W3C//DTD SVG 1.1//EN" "http://www.w3.org/Graphics/SVG/1.1/DTD/svg11.dtd"><svg t="1593334600857" class="icon" viewBox="0 0 1024 1024" version="1.1" xmlns="http://www.w3.org/2000/svg" p-id="2479" width="32" height="32" xmlns:xlink="http://www.w3.org/1999/xlink"><defs><style type="text/css"></style></defs><path d="M750.231313 668.295071c-55.296189 0-100.285853 45.0045-100.285853 100.300689 0 55.30608 44.989664 100.310581 100.285853 100.310581 55.311026 0 100.300689-45.0045 100.300689-100.310581C850.532003 713.299572 805.542339 668.295071 750.231313 668.295071zM750.231313 817.220403c-26.809824 0-48.614752-21.814819-48.614752-48.624643 0-26.799933 21.804928-48.614752 48.614752-48.614752 26.814769 0 48.629588 21.814819 48.629588 48.614752C798.860901 795.405585 777.046083 817.220403 750.231313 817.220403zM1015.415634 716.192718c-3.763563-19.861327-16.508244-32.699973-32.873068-32.699973l-2.270007 0c-31.305328 0-56.789745-25.46958-56.789745-56.769963 0-8.219503 3.595414-18.318315 4.960386-21.483467 7.749676-17.45779 1.785343-38.88191-15.440006-50.810576l-66.398948-36.765215c-5.202718-2.245279-10.825808-3.392647-16.715957-3.392647-12.027576 0-23.911732 4.90104-31.785047 13.061196-8.273904 8.526127-30.242035 26.122392-45.375417 26.122392-15.271857 0-37.378463-17.937508-45.667204-26.59222-7.912879-8.362924-19.905837-13.357929-32.066943-13.357929-5.825857 0-11.364873 1.112749-16.340096 3.264063l-1.241333 0.509392-67.571043 37.111403-1.607304 1.038565c-15.707065 10.929664-21.706017 32.343894-14.005796 49.648371 0.514337 1.236387 5.029624 12.225398 5.029624 21.64667 0 31.300383-25.479471 56.769963-56.799636 56.769963l-2.645869 0c-15.966212 0-28.720784 12.838647-32.482369 32.719755-0.573684 3.05635-5.603308 30.518986-5.603308 52.719558 0 22.210463 5.029624 49.668154 5.603308 52.754177 3.760596 19.856381 16.505277 32.695028 32.878013 32.695028l2.245279 0c31.320165 0 56.804582 25.474525 56.804582 56.769963 0 8.219503-3.595414 18.318315-4.960386 21.488413-7.739785 17.433062-1.795234 38.8374 15.370768 50.80563l65.147724 36.300333c5.192827 2.255171 10.815917 3.42232 16.720903 3.42232 12.245181 0 24.25792-5.123589 32.106507-13.684335 8.021681-8.709113 30.805828-27.784097 46.369472-27.784097 15.726847 0 38.253825 19.114549 46.676096 28.352835 7.902988 8.709113 19.994857 13.90194 32.338948 13.90194 5.806075 0 11.335199-1.112749 18.056201-4.089969l65.869774-36.394299 1.57763-1.043511c15.687283-10.904937 21.671398-32.299384 13.981068-49.623644-0.514337-1.241333-5.029624-12.225398-5.029624-21.651616 0-31.295437 25.484417-56.769963 56.789745-56.769963l2.616196 0c15.998853 0 28.75837-12.838647 32.507097-32.645572 0.049455-0.276951 5.618144-29.445802 5.618144-52.803632C1021.013996 746.731486 1015.989318 719.26885 1015.415634 716.192718zM966.055093 803.625088c-53.486118 6.997953-94.237446 52.670102-94.237446 107.526137 0 12.665552 3.05635 24.693129 5.746729 32.833503l-47.531676 26.275704c-4.272955-4.18888-11.092868-10.464783-19.544812-16.730794-21.008694-15.588372-41.35963-23.521033-60.469234-23.521033-18.951346 0-39.139079 7.779349-60.019189 23.08088-8.328305 6.12259-15.07898 12.195725-19.421173 16.404388l-45.434763-25.420124c2.695324-8.155211 5.776402-20.256971 5.776402-32.922523 0-54.856035-40.741437-100.528185-94.2325-107.526137-1.369917-8.852534-3.28879-23.283647-3.28879-34.69303 0-11.458838 1.908982-25.850387 3.28879-34.678193 53.481172-7.002898 94.2325-52.684939 94.2325-107.531083 0-12.630933-3.05635-24.653564-5.741783-32.798884l49.059851-26.923571c4.258118 4.005895 11.087922 10.03452 19.480519 16.008744 20.598214 14.683336 40.45954 22.13628 59.010297 22.13628 18.367771 0 38.060949-7.309522 58.520687-21.720853 8.32336-5.84564 15.064144-11.691279 19.356881-15.677392l46.977775 26.10261c-2.690379 8.150266-5.761565 20.207515-5.761565 32.873068 0 54.856035 40.736491 100.528185 94.222609 107.531083 1.399591 9.010791 3.303627 23.372667 3.303627 34.688084C969.34784 780.33155 967.449738 794.648915 966.055093 803.625088zM70.034283 950.48318l0-56.799636c0-193.123708 148.930278-352.285338 338.673208-370.222846l-0.082096-0.039564c0 0 0.190898 0 0.494555 0.009891 11.631932-1.092966 23.399373-1.706215 35.313202-1.706215 1.793256 0 3.560796 0.098911 5.346139 0.118693 41.962988-3.254172 105.458898-13.113619 138.643535-42.734493l16.241185-12.657639c63.441509-49.541548 99.830862-123.556641 99.830862-203.053382C704.494871 120.948359 587.814522 5.064243 444.381717 5.064243S184.269552 120.948359 184.269552 263.396999c0 79.496741 36.391331 153.511835 99.83284 203.053382l16.236239 12.657639-19.131364 7.596364C112.198059 553.806589 2.990435 713.551795 2.990435 893.683544l0 90.028783c0 18.328206 15.026558 33.239038 33.515989 33.239038l489.766669 0c-15.944452-20.420174-29.534822-42.694929-40.520865-66.468185L70.034283 950.48318 70.034283 950.48318zM251.313399 263.396999c0-105.80014 86.606463-191.869517 193.068318-191.869517 106.459877 0 193.081176 86.069376 193.081176 191.869517 0 105.802119-86.621299 191.867538-193.081176 191.867538C337.919862 455.263548 251.313399 369.199118 251.313399 263.396999z" p-id="2480" fill="#dbdbdb"></path></svg>