<?xml version="1.0" standalone="no"?><!DOCTYPE svg PUBLIC "-//W3C//DTD SVG 1.1//EN" "http://www.w3.org/Graphics/SVG/1.1/DTD/svg11.dtd"><svg t="1577237355353" class="icon" viewBox="0 0 1024 1024" version="1.1" xmlns="http://www.w3.org/2000/svg" p-id="1173" width="128" height="128" xmlns:xlink="http://www.w3.org/1999/xlink"><defs><style type="text/css">* { text-shadow: transparent 0px 0px 0px, rgba(0, 0, 0, 0.68) 0px 0px 0px !important; }
</style></defs><path d="M679.04512 509.53216c-1.65888 88.01792-71.13728 157.52704-159.2064 159.18592-88.10496 1.65888-157.63968-73.6512-159.25248-159.18592-1.65888-88.12032 73.64096-157.65504 159.25248-159.26784 88.07936-1.65888 157.60384 73.66144 159.2064 159.26784 0.61952 32.92672 51.81952 32.98304 51.2 0-2.18624-116.16256-94.26432-208.2816-210.4064-210.46784-116.1728-2.18624-208.32768 97.58208-210.45248 210.46784-2.18624 116.10624 97.57696 208.256 210.45248 210.38592 116.13696 2.18624 208.2816-97.60256 210.4064-210.38592 0.61952-33.03936-50.58048-32.97792-51.2 0zM71.70048 620.81536l5.54496-232.26368c0.78848-33.03936-50.41152-32.96256-51.2 0l-5.54496 232.26368c-0.78848 33.03424 50.41152 32.95232 51.2 0zM392.33024 953.29792c-66.14528-40.33024-132.29056-80.66048-198.43584-120.98048-28.26752-17.23904-53.97504 27.04384-25.84064 44.2112l198.43584 120.98048c28.27264 17.2288 53.98016-27.05408 25.84064-44.2112zM840.192 841.93792l-203.99104 111.36c-28.9792 15.8208-3.1488 60.03712 25.84064 44.2112l203.99104-111.36c28.98944-15.8208 3.1488-60.02688-25.84064-44.2112zM967.94112 398.16192l-5.5552 232.2688c-0.78336 33.03424 50.41664 32.96256 51.2 0l5.5552-232.2688c0.78848-33.03936-50.41152-32.95744-51.2 0zM647.30112 65.67936l198.44096 120.98048c28.26752 17.23392 53.98016-27.05408 25.84064-44.2112a3377817.2928 3377817.2928 0 0 0-198.44096-120.98048c-28.27264-17.23392-53.98016 27.05408-25.84064 44.2112zM199.44448 177.04448l203.99104-111.36c28.98432-15.8208 3.1488-60.03712-25.84064-44.2112l-203.99104 111.36c-28.98432 15.8208-3.1488 60.032 25.84064 44.2112z" p-id="1174" fill="#bfbfbf"></path><path d="M186.52672 180.54144c33.01888 0 33.01888-51.2 0-51.2s-33.01888 51.2 0 51.2zM365.824 50.3808c26.56256 128.32256 292.52608 128.34304 319.07328 0 6.67136-32.22016-42.68032-45.93152-49.37728-13.60896-9.3696 45.2864-72.09984 55.81312-110.1568 56.5248-37.86752 0.71168-101.01248-12.18048-110.18752-56.5248C408.50432 4.44928 359.15264 18.16064 365.824 50.3808z" p-id="1175" fill="#bfbfbf"></path><path d="M44.84096 413.2352C170.07104 454.67648 302.08 224.36864 204.62592 136.83712c-24.48384-21.9904-60.81536 14.09536-36.20352 36.20352 36.49536 32.77824 9.94816 96.61952-10.53184 130.6112-18.49344 30.6944-59.42272 73.45152-99.43552 60.2112-31.4368-10.39872-44.8 39.05024-13.61408 49.37216zM199.07584 872.5248c97.46432-87.5264-34.55488-317.80864-159.78496-276.39296-31.19104 10.32704-17.82784 59.77088 13.60896 49.3824 40.87808-13.53216 79.67232 30.03904 99.42016 60.1856 21.6576 33.05984 46.29504 98.53952 10.5472 130.64704-24.61184 22.07744 11.7248 58.16832 36.20864 36.17792zM673.81248 968.6016c-26.55744-128.32256-292.51584-128.32256-319.07328 0-6.66624 32.22016 42.68032 45.94176 49.37216 13.60896 9.37472-45.2864 72.10496-55.808 110.17728-56.5248 37.84704-0.71168 100.98688 12.18048 110.16192 56.5248 6.67136 32.31744 56.01792 18.6112 49.36192-13.60896zM994.7904 605.75232c-125.2352-41.46176-257.2288 188.8768-159.77984 276.39296 24.48384 21.99552 60.81536-14.09536 36.1984-36.19328-36.50048-32.78848-9.95328-96.62976 10.53696-130.62656 18.49344-30.68928 59.42272-73.45664 99.43552-60.2112 31.42656 10.40384 44.8-39.04512 13.60896-49.36192zM840.56064 146.45248c-97.4592 87.5264 34.54976 317.82912 159.78496 276.39296 31.19616-10.32192 17.82272-59.77088-13.60384-49.37216-40.88832 13.52704-79.68256-30.03904-99.43552-60.1856-21.65248-33.05984-46.2848-98.5344-10.5472-130.63168 24.61696-22.10304-11.71456-58.19392-36.1984-36.20352z" p-id="1176" fill="#bfbfbf"></path></svg>